<svg width="17" height="17" viewBox="0 0 17 17" fill="none" xmlns="http://www.w3.org/2000/svg">
<path opacity="0.4" fill-rule="evenodd" clip-rule="evenodd" d="M7.66944 0.0249137C6.16848 0.262097 5.00285 0.859376 4.30319 1.74981C4.03644 2.08917 3.93095 2.17605 3.78552 2.17605C3.43528 2.17605 2.54731 2.44308 1.99534 2.71436C0.994694 3.20621 0.259134 4.10516 0.0542727 5.0864C-0.109244 5.86961 0.107449 7.44633 0.560111 8.76692C0.866938 9.66208 1.5327 11.0119 2.07982 11.8482L2.51474 12.5129L2.5164 14.7565L2.51799 17H8.50032H14.4826V14.7732V12.5465L14.7069 12.2305C15.4144 11.2339 16.2506 9.50759 16.5731 8.37771C17.1246 6.44555 17.1409 5.17886 16.6267 4.21052C16.3368 3.66469 15.6509 3.03172 15.0053 2.71436C14.4533 2.44308 13.5654 2.17605 13.2151 2.17605C13.0697 2.17605 12.9642 2.08917 12.6975 1.74981C12.1186 1.01313 11.1803 0.44969 10.0774 0.176543C9.54071 0.0436596 8.11792 -0.0459488 7.66944 0.0249137ZM9.79649 1.47587C10.8429 1.74848 11.7658 2.45777 11.9555 3.13535C12.0834 3.59223 11.9284 5.21217 11.6488 6.34065C11.6161 6.4726 11.6624 6.49467 12.255 6.62968C12.6078 6.71005 12.9055 6.76542 12.9165 6.75273C13.0055 6.64956 13.3527 4.29428 13.3527 3.79339V3.51273L13.7016 3.61517C14.513 3.85342 15.1881 4.34334 15.4936 4.91542C15.6258 5.16304 15.6452 5.29273 15.641 5.89865C15.6382 6.29518 15.5848 6.83988 15.5173 7.15989C15.2634 8.36315 14.603 9.92113 13.8472 11.1003L13.4743 11.682H10.4201H7.36594L7.08058 11.0671C6.92365 10.7289 6.65078 10.0993 6.47424 9.66799C6.29317 9.22567 6.12148 8.89622 6.0804 8.9123C6.04045 8.92799 5.76188 9.03588 5.46143 9.15208L4.91518 9.36341L5.02366 9.64187C5.08328 9.79509 5.30317 10.3167 5.51228 10.8012L5.89256 11.682L4.72042 11.6811L3.54828 11.6803L3.23508 11.1988C2.08208 9.42616 1.37424 7.43669 1.36115 5.93189C1.35556 5.28968 1.37331 5.16597 1.50705 4.91542C1.81122 4.3458 2.48788 3.85335 3.28998 3.61789L3.62984 3.51811L3.67484 4.1713C3.7128 4.72258 3.82141 5.46185 4.02388 6.54679C4.04608 6.66564 4.08782 6.76283 4.11674 6.76283C4.19079 6.76283 5.33873 6.48882 5.36286 6.46536C5.37382 6.45479 5.3368 6.24811 5.2807 6.00608C5.14942 5.43984 4.9774 4.12796 4.9774 3.69268C4.9774 3.17809 5.10429 2.85815 5.46482 2.46362C5.96674 1.9144 6.6101 1.58575 7.5365 1.40534C8.10589 1.29439 9.23515 1.32969 9.79649 1.47587ZM13.1532 14.341V15.6705H8.53356H3.91387V14.341V13.0115H8.53356H13.1532V14.341Z" fill="#0EC645"/>
</svg>
