<svg width="77" height="83" viewBox="0 0 77 83" fill="none" xmlns="http://www.w3.org/2000/svg">
<path opacity="0.4" fill-rule="evenodd" clip-rule="evenodd" d="M15.5587 0.772332C14.0798 1.83691 13.3649 3.51006 13.3646 5.90836L13.3639 7.8798H7.7748C4.55007 7.8798 1.92701 8.02928 1.57383 8.23294C-0.0504706 9.16963 0.000438016 7.96551 0.000438016 45.4228C0.000438016 83.2655 -0.0746521 81.6647 1.74151 82.5562C2.94677 83.1479 74.0532 83.1479 75.2585 82.5562C77.0747 81.6647 76.9996 83.2655 76.9996 45.4228C76.9996 7.96551 77.0505 9.16963 75.4262 8.23294C75.073 8.02928 72.4499 7.8798 69.2252 7.8798H63.6361L63.6354 5.90836C63.6345 1.40834 60.4756 -1.18779 57.1007 0.537817C55.5499 1.33085 54.946 2.5528 54.744 5.30836L54.568 7.70837H38.5H22.432L22.2561 5.30836C22.054 2.5528 21.4501 1.33085 19.8993 0.537817C18.4058 -0.226073 16.827 -0.140701 15.5587 0.772332ZM19.4093 3.07977C19.989 3.70446 20.0457 4.22252 20.0457 8.90837C20.0457 13.5942 19.989 14.1123 19.4093 14.737C19.0558 15.1179 18.3488 15.4227 17.8184 15.4227C17.288 15.4227 16.581 15.1179 16.2275 14.737C15.6491 14.1137 15.5912 13.5942 15.5912 9.01603C15.5912 4.31852 15.6376 3.92801 16.2829 3.18743C17.141 2.20343 18.5509 2.15474 19.4093 3.07977ZM60.6726 3.13943C61.378 3.85361 61.4088 4.09806 61.4088 8.96803C61.4088 13.5942 61.3516 14.113 60.7725 14.737C60.419 15.1179 59.712 15.4227 59.1816 15.4227C58.6512 15.4227 57.9442 15.1179 57.5907 14.737C57.011 14.1123 56.9543 13.5942 56.9543 8.90837C56.9543 4.22252 57.011 3.70446 57.5907 3.07977C58.4237 2.18217 59.7521 2.20788 60.6726 3.13943ZM13.3639 12.1827C13.3639 15.3963 14.8317 17.4332 17.3688 17.7414C20.3718 18.1062 22.2729 16.0285 22.2729 12.3822V10.2798H38.5H54.7271V12.3822C54.7271 16.0659 56.5216 18.0534 59.5628 17.7387C62.1508 17.4706 63.6361 15.4419 63.6361 12.1744V10.2637L69.1246 10.3573L74.6132 10.4512L74.6998 17.0513L74.786 23.6513H38.507H2.22769V17.1942C2.22769 13.6426 2.32314 10.634 2.43991 10.5085C2.55636 10.3827 5.06202 10.2798 8.00803 10.2798H13.3639V12.1827ZM74.6947 53.2229L74.6132 80.3944H38.5H2.38677L2.30532 53.2229L2.22387 26.0513H38.5H74.7761L74.6947 53.2229Z" fill="#0EC645"/>
</svg>
