<svg width="37" height="36" viewBox="0 0 37 36" fill="none" xmlns="http://www.w3.org/2000/svg">
<g opacity="0.5" clip-path="url(#clip0_527_652)">
<path d="M19.4129 17.9999L27.7029 9.70994C27.8667 9.51864 27.9523 9.27256 27.9426 9.02089C27.9329 8.76921 27.8286 8.53047 27.6505 8.35238C27.4724 8.17428 27.2336 8.06995 26.982 8.06023C26.7303 8.05051 26.4842 8.13612 26.2929 8.29994L18.0029 16.5899L9.7129 8.28994C9.5246 8.10164 9.2692 7.99585 9.0029 7.99585C8.7366 7.99585 8.48121 8.10164 8.2929 8.28994C8.1046 8.47825 7.99881 8.73364 7.99881 8.99994C7.99881 9.26624 8.1046 9.52164 8.2929 9.70994L16.5929 17.9999L8.2929 26.2899C8.18822 26.3796 8.1032 26.4899 8.04318 26.614C7.98315 26.738 7.94942 26.8732 7.9441 27.0109C7.93879 27.1486 7.96199 27.2859 8.01227 27.4143C8.06254 27.5426 8.1388 27.6591 8.23625 27.7566C8.33371 27.854 8.45025 27.9303 8.57858 27.9806C8.7069 28.0309 8.84424 28.0541 8.98196 28.0487C9.11968 28.0434 9.25481 28.0097 9.37887 27.9497C9.50294 27.8896 9.61326 27.8046 9.7029 27.6999L18.0029 19.4099L26.2929 27.6999C26.4842 27.8638 26.7303 27.9494 26.982 27.9397C27.2336 27.9299 27.4724 27.8256 27.6505 27.6475C27.8286 27.4694 27.9329 27.2307 27.9426 26.979C27.9523 26.7273 27.8667 26.4812 27.7029 26.2899L19.4129 17.9999Z" fill="white"/>
</g>
<defs>
<clipPath id="clip0_527_652">
<rect width="36" height="36" fill="white" transform="translate(0.00195312)"/>
</clipPath>
</defs>
</svg>
