<svg width="115" height="67" viewBox="0 0 115 67" fill="none" xmlns="http://www.w3.org/2000/svg">
<g filter="url(#filter0_i_274_78)">
<path fill-rule="evenodd" clip-rule="evenodd" d="M94.8946 0C95.4655 0 95.9283 0.462778 95.9283 1.03364C95.9283 1.24425 95.9926 1.44983 96.1126 1.62286L113.275 26.36C115.476 29.5324 115.579 33.7101 113.537 36.9869L96.0755 65.0017C95.9793 65.1561 95.9283 65.3345 95.9283 65.5164C95.9283 66.0539 95.4925 66.4896 94.9551 66.4896H10.2962C4.95575 66.4896 0.626465 62.1603 0.626465 56.8199V9.66972C0.626465 4.32928 4.95575 0 10.2962 0H94.8946ZM95.6819 38.0911C98.2947 38.0911 100.413 35.973 100.413 33.3602C100.413 30.7475 98.2947 28.6294 95.6819 28.6294C93.0691 28.6294 90.9511 30.7475 90.9511 33.3602C90.9511 35.973 93.0691 38.0911 95.6819 38.0911Z" fill="#FFA149"/>
</g>
<defs>
<filter id="filter0_i_274_78" x="0.626465" y="0" width="114.374" height="66.4897" filterUnits="userSpaceOnUse" color-interpolation-filters="sRGB">
<feFlood flood-opacity="0" result="BackgroundImageFix"/>
<feBlend mode="normal" in="SourceGraphic" in2="BackgroundImageFix" result="shape"/>
<feColorMatrix in="SourceAlpha" type="matrix" values="0 0 0 0 0 0 0 0 0 0 0 0 0 0 0 0 0 0 127 0" result="hardAlpha"/>
<feOffset/>
<feGaussianBlur stdDeviation="8.21926"/>
<feComposite in2="hardAlpha" operator="arithmetic" k2="-1" k3="1"/>
<feColorMatrix type="matrix" values="0 0 0 0 1 0 0 0 0 1 0 0 0 0 1 0 0 0 0.4 0"/>
<feBlend mode="normal" in2="shape" result="effect1_innerShadow_274_78"/>
</filter>
</defs>
</svg>
