<svg width="27" height="27" viewBox="0 0 27 27" fill="none" xmlns="http://www.w3.org/2000/svg">
<path d="M27 13.5C27 20.9557 20.9557 27 13.5 27C6.04425 27 0 20.9557 0 13.5C0 6.04425 6.04425 0 13.5 0C20.9557 0 27 6.04425 27 13.5Z" fill="#FFD876"/>
<path d="M5.25 17.25C7.32107 17.25 9 15.5711 9 13.5C9 11.4289 7.32107 9.75 5.25 9.75C3.17893 9.75 1.5 11.4289 1.5 13.5C1.5 15.5711 3.17893 17.25 5.25 17.25Z" fill="#FF7892"/>
<path d="M21.75 17.25C23.8211 17.25 25.5 15.5711 25.5 13.5C25.5 11.4289 23.8211 9.75 21.75 9.75C19.6789 9.75 18 11.4289 18 13.5C18 15.5711 19.6789 17.25 21.75 17.25Z" fill="#FF7892"/>
<path d="M20.5011 16.2217C20.3676 16.101 20.1681 16.0935 20.0249 16.2C19.9956 16.2218 17.0834 18.375 13.4999 18.375C9.92538 18.375 7.00338 16.2218 6.97488 16.2C6.83163 16.0935 6.63213 16.1025 6.49863 16.2217C6.36588 16.3418 6.33588 16.5398 6.42813 16.6927C6.52488 16.854 8.84088 20.625 13.4999 20.625C18.1589 20.625 20.4756 16.854 20.5716 16.6927C20.6639 16.539 20.6346 16.3418 20.5011 16.2217ZM5.99913 11.25C5.88663 11.25 5.77188 11.2245 5.66463 11.1705C5.29413 10.9852 5.14413 10.5345 5.32938 10.164C5.36838 10.086 6.31788 8.25 8.99988 8.25C11.6826 8.25 12.6314 10.0868 12.6704 10.1648C12.8556 10.5353 12.7056 10.986 12.3351 11.1713C11.9661 11.355 11.5214 11.208 11.3331 10.8442C11.3009 10.7842 10.7106 9.75 8.99988 9.75C7.26213 9.75 6.67563 10.8247 6.67038 10.8352C6.53913 11.0985 6.27438 11.25 5.99913 11.25ZM21.0006 11.25C20.7254 11.25 20.4606 11.0985 20.3286 10.8352C20.3099 10.8007 19.7241 9.75 17.9999 9.75C16.2756 9.75 15.6899 10.8008 15.6659 10.845C15.4709 11.2057 15.0216 11.3475 14.6571 11.16C14.2934 10.971 14.1456 10.5308 14.3286 10.164C14.3676 10.0868 15.3171 8.25 17.9999 8.25C20.6826 8.25 21.6321 10.0868 21.6711 10.1648C21.8564 10.5353 21.7064 10.986 21.3359 11.1713C21.2279 11.2245 21.1131 11.25 21.0006 11.25Z" fill="#664500"/>
</svg>
