<svg width="260" height="260" viewBox="0 0 260 260" fill="none" xmlns="http://www.w3.org/2000/svg">
<g filter="url(#filter0_i_501_492)">
<path d="M81.1848 32.565C64.6748 31.6875 48.1161 37.2125 35.9286 49.4C11.5373 73.84 14.0886 114.855 40.1861 140.985L48.5223 149.321L124.28 225.144C125.803 226.662 127.866 227.515 130.016 227.515C132.167 227.515 134.229 226.662 135.752 225.144L211.477 149.321L219.814 140.985C245.911 114.855 248.446 73.84 224.039 49.4163C199.647 24.9925 158.714 27.5925 132.632 53.7063L130 56.3388L127.367 53.7063C114.319 40.625 97.7111 33.4425 81.1848 32.565Z" fill="url(#paint0_linear_501_492)"/>
</g>
<defs>
<filter id="filter0_i_501_492" x="0" y="0" width="260" height="260" filterUnits="userSpaceOnUse" color-interpolation-filters="sRGB">
<feFlood flood-opacity="0" result="BackgroundImageFix"/>
<feBlend mode="normal" in="SourceGraphic" in2="BackgroundImageFix" result="shape"/>
<feColorMatrix in="SourceAlpha" type="matrix" values="0 0 0 0 0 0 0 0 0 0 0 0 0 0 0 0 0 0 127 0" result="hardAlpha"/>
<feOffset/>
<feGaussianBlur stdDeviation="13"/>
<feComposite in2="hardAlpha" operator="arithmetic" k2="-1" k3="1"/>
<feColorMatrix type="matrix" values="0 0 0 0 1 0 0 0 0 1 0 0 0 0 1 0 0 0 0.76 0"/>
<feBlend mode="normal" in2="shape" result="effect1_innerShadow_501_492"/>
</filter>
<linearGradient id="paint0_linear_501_492" x1="81.3776" y1="-2.83291" x2="194.582" y2="202.508" gradientUnits="userSpaceOnUse">
<stop stop-color="#F1A44A"/>
<stop offset="1" stop-color="#FF8038"/>
</linearGradient>
</defs>
</svg>
