<svg width="19" height="19" viewBox="0 0 19 19" fill="none" xmlns="http://www.w3.org/2000/svg">
<g clip-path="url(#clip0_274_246)">
<path fill-rule="evenodd" clip-rule="evenodd" d="M6.13072 1.57204C7.01193 1.53148 7.29289 1.52246 9.53761 1.52246C11.7823 1.52246 12.0633 1.53223 12.9437 1.57204C13.8242 1.61186 14.4252 1.75234 14.9511 1.95593C15.5017 2.16402 16.0013 2.48931 16.4145 2.91001C16.8352 3.32244 17.1597 3.82127 17.3671 4.37268C17.5714 4.89855 17.7111 5.49955 17.7517 6.3785C17.7923 7.26121 17.8013 7.54218 17.8013 9.78614C17.8013 12.0309 17.7915 12.3118 17.7517 13.193C17.7119 14.072 17.5714 14.673 17.3671 15.1989C17.1597 15.7503 16.8346 16.25 16.4145 16.663C16.0013 17.0837 15.5017 17.4083 14.9511 17.6156C14.4252 17.8199 13.8242 17.9597 12.9452 18.0002C12.0633 18.0408 11.7823 18.0498 9.53761 18.0498C7.29289 18.0498 7.01193 18.0401 6.13072 18.0002C5.25176 17.9604 4.65077 17.8199 4.1249 17.6156C3.57342 17.4082 3.07377 17.0832 2.66072 16.663C2.24031 16.2503 1.91497 15.7509 1.70739 15.1996C1.50381 14.6737 1.36408 14.0727 1.32351 13.1938C1.28294 12.3111 1.27393 12.0301 1.27393 9.78614C1.27393 7.54143 1.28369 7.26046 1.32351 6.38C1.36332 5.49955 1.50381 4.89855 1.70739 4.37268C1.91528 3.82133 2.24087 3.32193 2.66147 2.90926C3.07394 2.48894 3.57309 2.1636 4.12414 1.95593C4.65002 1.75234 5.25101 1.61261 6.12997 1.57204H6.13072ZM12.8769 3.05951C12.0054 3.01969 11.744 3.01143 9.53761 3.01143C7.3312 3.01143 7.06977 3.01969 6.19833 3.05951C5.39224 3.09632 4.95502 3.23079 4.66354 3.34423C4.27815 3.49448 4.00244 3.67252 3.71321 3.96175C3.43904 4.22848 3.22805 4.55319 3.09569 4.91207C2.98225 5.20356 2.84778 5.64078 2.81097 6.44686C2.77115 7.31831 2.76289 7.57974 2.76289 9.78614C2.76289 11.9925 2.77115 12.254 2.81097 13.1254C2.84778 13.9315 2.98225 14.3687 3.09569 14.6602C3.22791 15.0186 3.43901 15.3438 3.71321 15.6105C3.97991 15.8847 4.30519 16.0958 4.66354 16.2281C4.95502 16.3415 5.39224 16.476 6.19833 16.5128C7.06977 16.5526 7.33045 16.5609 9.53761 16.5609C11.7448 16.5609 12.0054 16.5526 12.8769 16.5128C13.683 16.476 14.1202 16.3415 14.4117 16.2281C14.7971 16.0778 15.0728 15.8998 15.362 15.6105C15.6362 15.3438 15.8473 15.0186 15.9795 14.6602C16.093 14.3687 16.2274 13.9315 16.2642 13.1254C16.3041 12.254 16.3123 11.9925 16.3123 9.78614C16.3123 7.57974 16.3041 7.31831 16.2642 6.44686C16.2274 5.64078 16.093 5.20356 15.9795 4.91207C15.8293 4.52668 15.6512 4.25098 15.362 3.96175C15.0953 3.6876 14.7705 3.4766 14.4117 3.34423C14.1202 3.23079 13.683 3.09632 12.8769 3.05951V3.05951ZM8.48211 12.3336C9.07158 12.579 9.72796 12.6121 10.3391 12.4273C10.9503 12.2425 11.4784 11.8512 11.8331 11.3204C12.1879 10.7895 12.3473 10.1519 12.2842 9.51652C12.2211 8.88115 11.9393 8.28739 11.4871 7.83666C11.1988 7.54855 10.8502 7.32793 10.4664 7.19071C10.0826 7.05348 9.67315 7.00306 9.26753 7.04306C8.86191 7.08307 8.4702 7.21251 8.12061 7.42208C7.77102 7.63164 7.47225 7.9161 7.24579 8.255C7.01933 8.59389 6.87083 8.97877 6.81098 9.38194C6.75113 9.78512 6.78141 10.1965 6.89964 10.5866C7.01788 10.9767 7.22113 11.3357 7.49477 11.6377C7.7684 11.9398 8.1056 12.1775 8.48211 12.3336ZM6.53413 6.78267C6.92856 6.38825 7.3968 6.07538 7.91214 5.86192C8.42748 5.64846 8.97981 5.53859 9.53761 5.53859C10.0954 5.53859 10.6477 5.64846 11.1631 5.86192C11.6784 6.07538 12.1467 6.38825 12.5411 6.78267C12.9355 7.17709 13.2484 7.64534 13.4618 8.16067C13.6753 8.67601 13.7852 9.22835 13.7852 9.78614C13.7852 10.3439 13.6753 10.8963 13.4618 11.4116C13.2484 11.9269 12.9355 12.3952 12.5411 12.7896C11.7445 13.5862 10.6641 14.0337 9.53761 14.0337C8.41109 14.0337 7.33071 13.5862 6.53413 12.7896C5.73756 11.993 5.29006 10.9127 5.29006 9.78614C5.29006 8.65962 5.73756 7.57924 6.53413 6.78267V6.78267ZM14.7272 6.17116C14.8249 6.07896 14.9032 5.96808 14.9573 5.8451C15.0114 5.72211 15.0403 5.58952 15.0423 5.45517C15.0442 5.32082 15.0192 5.18744 14.9687 5.06293C14.9182 4.93842 14.8432 4.82531 14.7482 4.7303C14.6532 4.63529 14.5401 4.56031 14.4156 4.5098C14.2911 4.45928 14.1577 4.43426 14.0233 4.43622C13.889 4.43818 13.7564 4.46708 13.6334 4.5212C13.5104 4.57532 13.3995 4.65357 13.3073 4.75131C13.128 4.94139 13.0299 5.19388 13.0337 5.45517C13.0375 5.71646 13.143 5.96598 13.3277 6.15076C13.5125 6.33553 13.762 6.44103 14.0233 6.44483C14.2846 6.44864 14.5371 6.35047 14.7272 6.17116V6.17116Z" fill="white"/>
</g>
<defs>
<clipPath id="clip0_274_246">
<rect width="18.0299" height="18.0299" fill="white" transform="translate(0.522461 0.770996)"/>
</clipPath>
</defs>
</svg>
