<svg width="33" height="33" viewBox="0 0 33 33" fill="none" xmlns="http://www.w3.org/2000/svg">
<path d="M16.5 6.875L17.2287 6.14625C17.0354 5.95313 16.7733 5.84466 16.5 5.84466C16.2267 5.84466 15.9646 5.95313 15.7713 6.14625L16.5 6.875ZM16.5 17.875L15.7713 18.6038C15.9646 18.7969 16.2267 18.9053 16.5 18.9053C16.7733 18.9053 17.0354 18.7969 17.2287 18.6038L16.5 17.875ZM13.0213 8.89625C12.8391 9.09174 12.7399 9.3503 12.7446 9.61747C12.7493 9.88463 12.8576 10.1395 13.0465 10.3285C13.2355 10.5174 13.4904 10.6257 13.7575 10.6304C14.0247 10.6351 14.2833 10.5359 14.4787 10.3538L13.0213 8.89625ZM18.5213 10.3538C18.6157 10.4551 18.7295 10.5363 18.856 10.5927C18.9825 10.6491 19.1191 10.6794 19.2575 10.6818C19.396 10.6843 19.5335 10.6588 19.6619 10.6069C19.7904 10.5551 19.907 10.4779 20.0049 10.3799C20.1029 10.282 20.1801 10.1654 20.2319 10.0369C20.2838 9.90854 20.3093 9.771 20.3068 9.63253C20.3044 9.49406 20.2741 9.35751 20.2177 9.23101C20.1613 9.10451 20.0801 8.99066 19.9787 8.89625L18.5213 10.3538ZM14.4787 14.3963C14.3843 14.2949 14.2705 14.2137 14.144 14.1573C14.0175 14.1009 13.8809 14.0706 13.7425 14.0682C13.604 14.0657 13.4665 14.0912 13.3381 14.1431C13.2096 14.1949 13.093 14.2721 12.9951 14.3701C12.8971 14.468 12.8199 14.5846 12.7681 14.7131C12.7162 14.8415 12.6907 14.979 12.6932 15.1175C12.6956 15.2559 12.7259 15.3925 12.7823 15.519C12.8387 15.6455 12.9199 15.7593 13.0213 15.8537L14.4787 14.3963ZM19.9787 15.8537C20.0801 15.7593 20.1613 15.6455 20.2177 15.519C20.2741 15.3925 20.3044 15.2559 20.3068 15.1175C20.3093 14.979 20.2838 14.8415 20.2319 14.7131C20.1801 14.5846 20.1029 14.468 20.0049 14.3701C19.907 14.2721 19.7904 14.1949 19.6619 14.1431C19.5335 14.0912 19.396 14.0657 19.2575 14.0682C19.1191 14.0706 18.9825 14.1009 18.856 14.1573C18.7295 14.2137 18.6157 14.2949 18.5213 14.3963L19.9787 15.8537ZM4.46875 13.75V19.25H6.53125V13.75H4.46875ZM28.5312 19.25V13.75H26.4688V19.25H28.5312ZM15.4688 6.875V17.875H17.5312V6.875H15.4688ZM15.7713 6.14625L13.0213 8.89625L14.4787 10.3538L17.2287 7.60375L15.7713 6.14625ZM15.7713 7.60375L18.5213 10.3538L19.9787 8.89625L17.2287 6.14625L15.7713 7.60375ZM17.2287 17.1463L14.4787 14.3963L13.0213 15.8537L15.7713 18.6038L17.2287 17.1463ZM17.2287 18.6038L19.9787 15.8537L18.5213 14.3963L15.7713 17.1463L17.2287 18.6038ZM28.5312 13.75C28.5312 10.5591 27.2637 7.49892 25.0074 5.24262C22.7511 2.98632 19.6909 1.71875 16.5 1.71875V3.78125C19.1439 3.78125 21.6795 4.83153 23.549 6.70103C25.4185 8.57053 26.4688 11.1061 26.4688 13.75H28.5312ZM16.5 31.2812C18.08 31.2812 19.6445 30.9701 21.1042 30.3654C22.5639 29.7608 23.8902 28.8746 25.0074 27.7574C26.1246 26.6402 27.0108 25.3139 27.6154 23.8542C28.2201 22.3945 28.5312 20.83 28.5312 19.25H26.4688C26.4688 21.8939 25.4185 24.4295 23.549 26.299C21.6795 28.1685 19.1439 29.2188 16.5 29.2188V31.2812ZM4.46875 19.25C4.46875 22.4409 5.73632 25.5011 7.99262 27.7574C10.2489 30.0137 13.3091 31.2812 16.5 31.2812V29.2188C13.8561 29.2188 11.3205 28.1685 9.45103 26.299C7.58153 24.4295 6.53125 21.8939 6.53125 19.25H4.46875ZM6.53125 13.75C6.53125 11.1061 7.58153 8.57053 9.45103 6.70103C11.3205 4.83153 13.8561 3.78125 16.5 3.78125V1.71875C13.3091 1.71875 10.2489 2.98632 7.99262 5.24262C5.73632 7.49892 4.46875 10.5591 4.46875 13.75H6.53125Z" fill="white"/>
</svg>
