<svg width="26" height="14" viewBox="0 0 26 14" fill="none" xmlns="http://www.w3.org/2000/svg">
<path fill-rule="evenodd" clip-rule="evenodd" d="M3.93905 6.01323C1.94532 4.44483 2.46281 1.50883 4.90068 0.557433C6.40545 -0.0299385 8.0641 0.344605 9.16882 1.52085C12.0338 4.57154 7.28822 8.64813 3.93905 6.01323ZM4.81089e-06 11.5216C-0.00263177 9.65386 1.07884 7.56144 2.27609 7.11774C3.0661 6.82502 3.51336 6.88623 4.69599 7.44976C6.12022 8.12841 6.82754 8.12519 8.2791 7.43366C9.62639 6.79174 10.6511 6.85101 11.4543 7.61706C11.4778 7.6395 11.5011 7.66252 11.5241 7.6861C10.694 8.54064 10.0649 10.0965 10.0669 11.5217C10.068 12.2973 10.7247 13.3164 11.4248 13.6955C10.6134 13.9556 9.21364 14 6.49821 14C4.12721 14 1.9108 13.9057 1.57284 13.7906C0.798649 13.5269 0.00120326 12.3764 4.81089e-06 11.5216Z" fill="#76C865"/>
<path fill-rule="evenodd" clip-rule="evenodd" d="M18.0457 0.557433C15.6078 1.50883 15.0903 4.44483 17.0841 6.01323C20.4332 8.64813 25.1788 4.57154 22.3138 1.52085C21.2091 0.344605 19.5505 -0.0299385 18.0457 0.557433ZM15.4211 7.11774C14.2239 7.56144 13.1424 9.65386 13.145 11.5216C13.1462 12.3764 13.9437 13.5269 14.7179 13.7906C15.0558 13.9057 17.2722 14 19.6432 14C24.5449 14 25.1597 13.8552 25.7644 12.5587C26.3639 11.2729 25.7637 8.72759 24.5993 7.61706C23.7961 6.85101 22.7714 6.79174 21.4241 7.43366C19.9726 8.12519 19.2652 8.12841 17.841 7.44976C16.6584 6.88623 16.2111 6.82502 15.4211 7.11774Z" fill="#76C865"/>
</svg>
