<svg width="19" height="10" viewBox="0 0 19 10" fill="none" xmlns="http://www.w3.org/2000/svg">
<path fill-rule="evenodd" clip-rule="evenodd" d="M2.87181 4.17718C1.41826 3.03372 1.79554 0.893196 3.57289 0.199574C4.66996 -0.228655 5.87921 0.0444097 6.68462 0.901965C8.77338 3.1261 5.31355 6.09818 2.87181 4.17718ZM3.50743e-06 8.19314C-0.00191872 6.83142 0.786542 5.30592 1.65941 4.98243C2.23537 4.76902 2.56145 4.81365 3.42366 5.2245C4.46201 5.71927 4.97769 5.71692 6.03596 5.21276C7.01822 4.74476 7.76526 4.78797 8.35084 5.34647C8.368 5.36283 8.38499 5.37962 8.4018 5.39682C7.7966 6.01984 7.33794 7.15416 7.33941 8.19314C7.3402 8.75861 7.819 9.50161 8.32938 9.778C7.73789 9.96761 6.71735 10 4.73759 10C3.00898 10 1.39309 9.93126 1.1467 9.84734C0.582263 9.65507 0.000877245 8.8163 3.50743e-06 8.19314Z" fill="#76C865"/>
<path fill-rule="evenodd" clip-rule="evenodd" d="M13.1564 0.199574C11.379 0.893196 11.0018 3.03372 12.4553 4.17718C14.897 6.09818 18.3569 3.1261 16.2681 0.901965C15.4627 0.0444097 14.2535 -0.228655 13.1564 0.199574ZM11.2429 4.98243C10.37 5.30592 9.58158 6.83142 9.5835 8.19314C9.58437 8.8163 10.1658 9.65507 10.7302 9.84734C10.9766 9.93126 12.5925 10 14.3211 10C17.8947 10 18.3429 9.89447 18.7838 8.94923C19.2208 8.01183 18.7833 6.15611 17.9343 5.34647C17.3488 4.78797 16.6017 4.74476 15.6195 5.21276C14.5612 5.71692 14.0455 5.71927 13.0072 5.2245C12.145 4.81365 11.8189 4.76902 11.2429 4.98243Z" fill="#76C865"/>
</svg>
