<svg width="21" height="21" viewBox="0 0 21 21" fill="none" xmlns="http://www.w3.org/2000/svg">
<g opacity="0.4">
<path d="M16.6224 17.5C9.15776 17.5105 3.49213 11.7775 3.50001 4.37762C3.50001 3.89375 3.89201 3.5 4.37501 3.5H6.68501C7.11813 3.5 7.48651 3.8185 7.55038 4.24725C7.70272 5.27542 8.00181 6.27642 8.43851 7.21963L8.52863 7.41387C8.58917 7.54459 8.6022 7.69234 8.56546 7.83163C8.52872 7.97092 8.44452 8.09302 8.32738 8.17688C7.61163 8.68788 7.33863 9.716 7.89601 10.5175C8.59775 11.5267 9.47358 12.4028 10.4825 13.1049C11.2849 13.6614 12.313 13.3884 12.8231 12.6735C12.9069 12.556 13.0291 12.4715 13.1686 12.4346C13.3081 12.3977 13.4561 12.4107 13.587 12.4714L13.7804 12.5606C14.7236 12.9981 15.7246 13.2974 16.7528 13.4496C17.1815 13.5135 17.5 13.8819 17.5 14.3159V16.625C17.5 16.74 17.4773 16.8538 17.4333 16.9601C17.3893 17.0663 17.3248 17.1628 17.2434 17.244C17.1621 17.3253 17.0655 17.3897 16.9592 17.4336C16.853 17.4776 16.7391 17.5001 16.6241 17.5H16.6224Z" fill="#0EC645"/>
</g>
</svg>
