<svg width="24" height="24" viewBox="0 0 24 24" fill="none" xmlns="http://www.w3.org/2000/svg">
<path d="M5.25 21.0001C5.05109 21.0001 4.86032 20.9211 4.71967 20.7804C4.57902 20.6398 4.5 20.449 4.5 20.2501V3.75012C4.50002 3.61979 4.53401 3.49172 4.5986 3.37852C4.66319 3.26533 4.75617 3.17092 4.86836 3.1046C4.98056 3.03828 5.1081 3.00235 5.23841 3.00033C5.36872 2.99832 5.49731 3.0303 5.6115 3.09312L20.6115 11.3431C20.7291 11.4079 20.8271 11.503 20.8954 11.6185C20.9637 11.7341 20.9998 11.8659 20.9998 12.0001C20.9998 12.1344 20.9637 12.2661 20.8954 12.3817C20.8271 12.4973 20.7291 12.5924 20.6115 12.6571L5.6115 20.9071C5.50076 20.9681 5.37641 21.0001 5.25 21.0001Z" fill="white"/>
</svg>
