<svg width="18" height="16" viewBox="0 0 18 16" fill="none" xmlns="http://www.w3.org/2000/svg">
<path opacity="0.4" fill-rule="evenodd" clip-rule="evenodd" d="M6.96537 0.154998C6.12991 0.484603 5.625 1.31049 5.625 2.3475V2.88663H2.8125H0V3.60913V4.33163H0.703125H1.40625V5.05413V5.77663H0.703125H0V6.49913V7.22163H0.703125H1.40625V10.723C1.40625 14.0522 1.41321 14.2435 1.54744 14.6122C1.7389 15.1381 2.1027 15.5531 2.58581 15.7969L2.98828 16H9C14.9641 16 15.0142 15.9988 15.3317 15.8478C15.7995 15.6255 16.1402 15.2861 16.3624 14.821L16.5586 14.4105L16.5786 10.8161L16.5987 7.22163H17.2993H18V6.49913V5.77663H17.2969H16.5938V5.05413V4.33163H17.2969H18V3.60913V2.88663H15.0203H12.0407L12.0109 2.24859C11.961 1.17553 11.5044 0.474921 10.6377 0.141704C10.303 0.0130269 10.0957 -0.0029404 8.80397 0.000383105C7.50157 0.00377885 7.30723 0.0201076 6.96537 0.154998ZM10.2324 1.52796C10.4943 1.6505 10.6172 1.94492 10.6172 2.44951V2.88663H8.82422H7.03125L7.03371 2.43506C7.03652 1.93676 7.13623 1.68728 7.39055 1.54249C7.61555 1.41432 9.96412 1.40232 10.2324 1.52796ZM15.1875 9.16898C15.1875 12.7655 15.166 14.0549 15.1035 14.1958C14.9226 14.6036 15.1151 14.5911 9 14.5911C2.88492 14.5911 3.07737 14.6036 2.89652 14.1958C2.83402 14.0549 2.8125 12.7655 2.8125 9.16898V4.33163H9H15.1875V9.16898Z" fill="#0EC645"/>
</svg>
