<svg width="23" height="23" viewBox="0 0 23 23" fill="none" xmlns="http://www.w3.org/2000/svg">
<g clip-path="url(#clip0_268_1618)">
<path d="M10.9236 0.00383504C9.07789 0.0261163 5.10967 0.329429 2.89017 2.36565C1.2392 4.00152 0.662767 6.42012 0.595205 9.41084C0.539142 12.3908 0.47158 17.987 5.8658 19.5107V21.8316C5.8658 21.8316 5.83202 22.7602 6.44583 22.9506C7.20196 23.19 7.63249 22.4756 8.35124 21.7079L9.6917 20.1921C13.3825 20.499 16.2093 19.7917 16.5349 19.6868C17.2839 19.4475 21.5022 18.9084 22.1915 13.3115C22.8987 7.5313 21.8472 3.8894 19.949 2.24202H19.9375C19.3646 1.71446 17.0625 0.0368975 11.9191 0.01821C11.9191 0.01821 11.5375 -0.00766496 10.9236 0.00311629V0.00383504ZM10.9869 1.62893C11.5109 1.62534 11.8293 1.64762 11.8293 1.64762C16.1827 1.65912 18.2606 2.9694 18.7508 3.41071C20.3493 4.78065 21.173 8.0639 20.57 12.8896C19.9971 17.5686 16.5759 17.8648 15.9427 18.0667C15.6731 18.153 13.1834 18.7668 10.0468 18.5648C10.0468 18.5648 7.71083 21.3838 6.98058 22.1097C6.86486 22.2369 6.72974 22.2743 6.64349 22.2556C6.51986 22.2254 6.48249 22.0723 6.48967 21.8625L6.51196 18.0107C1.93711 16.7457 2.20664 11.9725 2.25552 9.47912C2.31158 6.98577 2.77949 4.94596 4.17242 3.56452C6.04764 1.86899 9.41714 1.64043 10.9855 1.62893H10.9869ZM11.3319 4.12155C11.2942 4.12117 11.2569 4.12825 11.222 4.14238C11.1871 4.1565 11.1553 4.17739 11.1285 4.20385C11.1017 4.23031 11.0804 4.26181 11.0659 4.29654C11.0513 4.33126 11.0438 4.36852 11.0437 4.40618C11.0437 4.56718 11.1745 4.6944 11.3319 4.6944C12.0445 4.68084 12.7528 4.80851 13.4159 5.07003C14.0789 5.33156 14.6837 5.72176 15.1952 6.21815C16.2395 7.2323 16.7484 8.59505 16.7678 10.3768C16.7678 10.5342 16.895 10.6651 17.056 10.6651V10.6536C17.1319 10.6537 17.2048 10.6239 17.2588 10.5706C17.3128 10.5173 17.3435 10.4448 17.3442 10.3689C17.3791 9.53026 17.2431 8.69324 16.9445 7.90877C16.6458 7.12429 16.1908 6.40873 15.607 5.80558C14.4692 4.69368 13.0274 4.12083 11.3319 4.12083V4.12155ZM7.54336 4.78065C7.33992 4.75092 7.13243 4.79176 6.95542 4.89637H6.94033C6.52939 5.13725 6.1592 5.4417 5.84352 5.7984C5.58117 6.10171 5.43886 6.40862 5.40149 6.70402C5.3792 6.88012 5.3943 7.05621 5.44677 7.2244L5.46545 7.2359C5.76086 8.10415 6.14683 8.93934 6.61833 9.72565C7.22569 10.8303 7.97314 11.852 8.84214 12.7652L8.86802 12.8026L8.90899 12.8328L8.93486 12.863L8.96505 12.8889C9.88162 13.7604 10.9057 14.5114 12.0125 15.1235C13.2775 15.812 14.0452 16.1376 14.5059 16.2727V16.2799C14.641 16.3209 14.7639 16.3396 14.8875 16.3396C15.2802 16.3108 15.6519 16.1514 15.9434 15.8868C16.2985 15.571 16.5995 15.1993 16.8346 14.7864V14.7792C17.0553 14.3637 16.9805 13.9706 16.6621 13.7046C16.0245 13.1473 15.3349 12.6522 14.6029 12.2262C14.1127 11.9602 13.6146 12.1212 13.4127 12.3908L12.9821 12.9334C12.7615 13.203 12.3604 13.1656 12.3604 13.1656L12.3489 13.1728C9.3582 12.4087 8.56039 9.38065 8.56039 9.38065C8.56039 9.38065 8.52302 8.9688 8.79974 8.75893L9.3388 8.3248C9.59683 8.11493 9.77652 7.61755 9.4998 7.12665C9.07674 6.39363 8.58275 5.70392 8.02492 5.06743C7.90297 4.91738 7.73189 4.81528 7.54192 4.77921L7.54336 4.78065ZM11.8293 5.63452C11.4476 5.63452 11.4476 6.21096 11.8329 6.21096C12.3074 6.21866 12.7758 6.3198 13.2113 6.50862C13.6468 6.69743 14.0408 6.97021 14.3708 7.31137C14.6718 7.64344 14.9031 8.03255 15.051 8.45565C15.1989 8.87875 15.2604 9.32723 15.2318 9.77452C15.2331 9.85022 15.264 9.9224 15.3179 9.97559C15.3718 10.0288 15.4443 10.0588 15.52 10.0591L15.5315 10.0742C15.6078 10.0737 15.6808 10.0431 15.7347 9.9892C15.7887 9.93527 15.8192 9.86229 15.8198 9.78602C15.8456 8.64393 15.4906 7.68584 14.7941 6.91821C14.094 6.15059 13.1173 5.72005 11.8702 5.63452H11.8293ZM12.3015 7.18415C11.9083 7.17265 11.8932 7.76059 12.2828 7.77209C13.2301 7.82096 13.6901 8.29965 13.7505 9.28434C13.7518 9.35908 13.7823 9.43034 13.8355 9.48287C13.8887 9.53539 13.9604 9.565 14.0351 9.56537H14.0466C14.085 9.56372 14.1228 9.55443 14.1576 9.53805C14.1924 9.52166 14.2236 9.49851 14.2493 9.46994C14.2751 9.44137 14.2949 9.40796 14.3076 9.37164C14.3203 9.33534 14.3257 9.29686 14.3233 9.25846C14.2558 7.97477 13.5557 7.25171 12.313 7.18487H12.3015V7.18415Z" fill="white"/>
</g>
<defs>
<clipPath id="clip0_268_1618">
<rect width="23" height="23" fill="white"/>
</clipPath>
</defs>
</svg>
