<svg width="19" height="18" viewBox="0 0 19 18" fill="none" xmlns="http://www.w3.org/2000/svg">
<g clip-path="url(#clip0_274_242)">
<path d="M9.06729 0.524975C7.68068 0.541714 4.69958 0.769575 3.03219 2.29927C1.79191 3.52821 1.35887 5.34517 1.30811 7.59193C1.266 9.83058 1.21524 14.0347 5.26761 15.1794V16.9229C5.26761 16.9229 5.24224 17.6205 5.70336 17.7636C6.27139 17.9434 6.59483 17.4067 7.13478 16.83L8.1418 15.6913C10.9145 15.9218 13.0381 15.3905 13.2827 15.3117C13.8454 15.1319 17.0144 14.7269 17.5322 10.5223C18.0635 6.17994 17.2735 3.44398 15.8475 2.2064H15.8389C15.4085 1.81007 13.6791 0.549813 9.81513 0.535774C9.81513 0.535774 9.52841 0.516336 9.06729 0.524435V0.524975ZM9.1148 1.74582C9.50843 1.74312 9.74763 1.75986 9.74763 1.75986C13.0181 1.76849 14.5792 2.75284 14.9474 3.08437C16.1483 4.11353 16.7671 6.58005 16.314 10.2053C15.8837 13.7204 13.3135 13.9429 12.8378 14.0946C12.6353 14.1594 10.7649 14.6205 8.40854 14.4688C8.40854 14.4688 6.65368 16.5865 6.10509 17.1319C6.01815 17.2274 5.91664 17.2555 5.85185 17.2415C5.75897 17.2188 5.7309 17.1038 5.7363 16.9461L5.75303 14.0525C2.31621 13.1022 2.51869 9.51633 2.55541 7.64322C2.59753 5.77011 2.94904 4.23772 3.99548 3.19992C5.40422 1.92616 7.93554 1.75446 9.11372 1.74582H9.1148ZM9.37398 3.61839C9.3457 3.6181 9.31763 3.62342 9.29141 3.63403C9.26519 3.64464 9.24133 3.66034 9.2212 3.68021C9.20107 3.70009 9.18508 3.72375 9.17414 3.74984C9.1632 3.77593 9.15753 3.80392 9.15746 3.83221C9.15746 3.95316 9.25573 4.04873 9.37398 4.04873C9.90935 4.03855 10.4414 4.13446 10.9396 4.33093C11.4377 4.52739 11.892 4.82053 12.2762 5.19344C13.0608 5.95532 13.4431 6.97907 13.4577 8.31763C13.4577 8.43588 13.5532 8.53415 13.6742 8.53415V8.52551C13.7312 8.52566 13.7859 8.50326 13.8265 8.46321C13.8671 8.42315 13.8901 8.36869 13.8907 8.31169C13.9169 7.68164 13.8148 7.05284 13.5904 6.46351C13.3661 5.87417 13.0242 5.33661 12.5856 4.8835C11.7309 4.04819 10.6477 3.61785 9.37398 3.61785V3.61839ZM6.52787 4.11353C6.37504 4.09119 6.21916 4.12187 6.08619 4.20046H6.07485C5.76613 4.38142 5.48803 4.61014 5.25087 4.8781C5.05379 5.10597 4.94688 5.33653 4.9188 5.55845C4.90206 5.69074 4.9134 5.82303 4.95282 5.94938L4.96686 5.95802C5.18878 6.61028 5.47874 7.23771 5.83295 7.82843C6.28922 8.65832 6.85074 9.42582 7.50357 10.1119L7.52301 10.14L7.55379 10.1627L7.57323 10.1853L7.59591 10.2048C8.28447 10.8595 9.05384 11.4237 9.88532 11.8835C10.8356 12.4008 11.4123 12.6454 11.7584 12.7469V12.7523C11.8599 12.7831 11.9523 12.7971 12.0451 12.7971C12.3401 12.7755 12.6194 12.6557 12.8383 12.4569C13.1051 12.2197 13.3313 11.9405 13.5079 11.6303V11.6249C13.6737 11.3128 13.6175 11.0174 13.3783 10.8176C12.8993 10.3989 12.3812 10.027 11.8313 9.70693C11.4631 9.50715 11.0889 9.6281 10.9372 9.83058L10.6137 10.2383C10.448 10.4407 10.1467 10.4127 10.1467 10.4127L10.138 10.4181C7.89126 9.84408 7.29191 7.56925 7.29191 7.56925C7.29191 7.56925 7.26383 7.25985 7.47172 7.10218L7.87668 6.77605C8.07053 6.61838 8.20552 6.24473 7.99763 5.87594C7.67981 5.32527 7.3087 4.80713 6.88964 4.32897C6.79803 4.21624 6.6695 4.13955 6.52679 4.11245L6.52787 4.11353ZM9.74763 4.75499C9.46092 4.75499 9.46091 5.18804 9.75033 5.18804C10.1069 5.19382 10.4587 5.26981 10.7859 5.41165C11.113 5.5535 11.409 5.75842 11.6569 6.01471C11.8831 6.26418 12.0568 6.55649 12.168 6.87435C12.2791 7.1922 12.3253 7.52912 12.3038 7.86514C12.3048 7.92201 12.328 7.97623 12.3685 8.0162C12.4089 8.05616 12.4634 8.07869 12.5203 8.07897L12.5289 8.09031C12.5862 8.08988 12.6411 8.06693 12.6816 8.02642C12.7221 7.9859 12.745 7.93108 12.7455 7.87378C12.7649 7.01579 12.4982 6.29603 11.975 5.71936C11.449 5.14268 10.7152 4.81925 9.77841 4.75499H9.74763V4.75499ZM10.1024 5.91914C9.80703 5.9105 9.79569 6.35219 10.0883 6.36082C10.8 6.39754 11.1456 6.75715 11.1909 7.49689C11.1919 7.55304 11.2149 7.60658 11.2548 7.64604C11.2948 7.6855 11.3486 7.70774 11.4048 7.70802H11.4134C11.4423 7.70678 11.4706 7.6998 11.4968 7.68749C11.5229 7.67518 11.5463 7.65779 11.5657 7.63633C11.585 7.61486 11.5999 7.58976 11.6095 7.56248C11.619 7.53521 11.623 7.5063 11.6213 7.47745C11.5705 6.51309 11.0446 5.9699 10.111 5.91968H10.1024V5.91914Z" fill="white"/>
</g>
<defs>
<clipPath id="clip0_274_242">
<rect width="17.2786" height="17.2786" fill="white" transform="translate(0.86084 0.522461)"/>
</clipPath>
</defs>
</svg>
